<svg xmlns="http://www.w3.org/2000/svg" xmlns:xlink="http://www.w3.org/1999/xlink" width="50" zoomAndPan="magnify" viewBox="0 0 37.5 37.499999" height="50" preserveAspectRatio="xMidYMid meet" version="1.0"><defs><clipPath id="d886883170"><path d="M 0 0 L 37.007812 0 L 37.007812 37.007812 L 0 37.007812 Z M 0 0 " clip-rule="nonzero"/></clipPath></defs><path stroke-linecap="round" transform="matrix(0.00850263, 0, 0, 0.00850263, -20.124024, -20.124024)" fill="none" stroke-linejoin="round" d="M 3630.19605 3630.196108 L 5513.804562 5513.80462 " stroke="#ffffff" stroke-width="176.38" stroke-opacity="1" stroke-miterlimit="4"/><path stroke-linecap="round" transform="matrix(0.00850263, 0, 0, 0.00850263, -20.124024, -20.124024)" fill="none" stroke-linejoin="round" d="M 5513.804562 3630.196108 L 3630.19605 5513.80462 " stroke="#ffffff" stroke-width="176.38" stroke-opacity="1" stroke-miterlimit="4"/><g clip-path="url(#d886883170)"><path stroke-linecap="round" transform="matrix(0.00850263, 0, 0, 0.00850263, -20.124024, -20.124024)" fill="none" stroke-linejoin="round" d="M 6688.992506 4572.000364 C 6688.992506 4641.372288 6685.776589 4710.284794 6678.885339 4779.656717 C 6671.994088 4848.569224 6661.886921 4917.022314 6648.104419 4985.015987 C 6634.781335 5053.00966 6617.782916 5120.0845 6598.027998 5186.699923 C 6577.813663 5252.855929 6554.38341 5318.093102 6527.737241 5381.952025 C 6501.091072 5446.270364 6471.688402 5508.751037 6439.069816 5569.853459 C 6406.45123 5630.955882 6370.616726 5690.680054 6332.025723 5748.107143 C 6293.894136 5805.993648 6252.546632 5861.58307 6208.442628 5914.875408 C 6164.338623 5968.627164 6117.937536 6020.081835 6068.779948 6068.780006 C 6020.081776 6117.937594 5968.627105 6164.338682 5914.87535 6208.442686 C 5861.583011 6252.546691 5805.993589 6293.894194 5748.107084 6332.025781 C 5690.679995 6370.616785 5630.955823 6406.451288 5569.8534 6439.069875 C 5508.750978 6471.688461 5446.270305 6501.091131 5381.951966 6527.7373 C 5318.093043 6554.383469 5252.85587 6577.813721 5186.699864 6598.028057 C 5120.084441 6617.782975 5053.009601 6634.781393 4985.015928 6648.104478 C 4917.022255 6661.886979 4848.569165 6671.994147 4779.656659 6678.885398 C 4710.284735 6685.776648 4641.372229 6688.992565 4572.000306 6688.992565 C 4502.628382 6688.992565 4433.715876 6685.776648 4364.343953 6678.885398 C 4295.431446 6671.994147 4226.978356 6661.886979 4158.984683 6648.104478 C 4090.99101 6634.781393 4023.91617 6617.782975 3957.300747 6598.028057 C 3891.144741 6577.813721 3825.907568 6554.383469 3762.048645 6527.7373 C 3697.730306 6501.091131 3635.249633 6471.688461 3574.147211 6439.069875 C 3513.044788 6406.451288 3453.320616 6370.616785 3395.893527 6332.025781 C 3338.007022 6293.894194 3282.4176 6252.546691 3229.125261 6208.442686 C 3175.373506 6164.338682 3123.918835 6117.937594 3075.220664 6068.780006 C 3026.063076 6020.081835 2979.661988 5968.627164 2935.557984 5914.875408 C 2891.453979 5861.58307 2850.106475 5805.993648 2811.974889 5748.107143 C 2773.383885 5690.680054 2737.549381 5630.955882 2704.930795 5569.853459 C 2672.312209 5508.751037 2642.909539 5446.270364 2616.26337 5381.952025 C 2589.617201 5318.093102 2566.186949 5252.855929 2545.972613 5186.699923 C 2526.217695 5120.0845 2509.219276 5053.00966 2495.896192 4985.015987 C 2482.113691 4917.022314 2472.006523 4848.569224 2465.115272 4779.656717 C 2458.224022 4710.284794 2455.008105 4641.372288 2455.008105 4572.000364 C 2455.008105 4502.628441 2458.224022 4433.715935 2465.115272 4364.344011 C 2472.006523 4295.431505 2482.113691 4226.978415 2495.896192 4158.984742 C 2509.219276 4090.991069 2526.217695 4023.916229 2545.972613 3957.300806 C 2566.186949 3891.1448 2589.617201 3825.907627 2616.26337 3762.048704 C 2642.909539 3697.730365 2672.312209 3635.249692 2704.930795 3574.14727 C 2737.549381 3513.044847 2773.383885 3453.320675 2811.974889 3395.893586 C 2850.106475 3338.007081 2891.453979 3282.417659 2935.557984 3229.12532 C 2979.661988 3175.373565 3026.063076 3123.918894 3075.220664 3075.220722 C 3123.918835 3026.063134 3175.373506 2979.662047 3229.125261 2935.558042 C 3282.4176 2891.454038 3338.007022 2850.106534 3395.893527 2811.974947 C 3453.320616 2773.383944 3513.044788 2737.54944 3574.147211 2704.930854 C 3635.249633 2672.312267 3697.730306 2642.909598 3762.048645 2616.263429 C 3825.907568 2589.61726 3891.144741 2566.187007 3957.300747 2545.972672 C 4023.91617 2526.217754 4090.99101 2509.219335 4158.984683 2495.896251 C 4226.978356 2482.113749 4295.431446 2472.006582 4364.343953 2465.115331 C 4433.715876 2458.22408 4502.628382 2455.008163 4572.000306 2455.008163 C 4641.372229 2455.008163 4710.284735 2458.22408 4779.656659 2465.115331 C 4848.569165 2472.006582 4917.022255 2482.113749 4985.015928 2495.896251 C 5053.009601 2509.219335 5120.084441 2526.217754 5186.699864 2545.972672 C 5252.85587 2566.187007 5318.093043 2589.61726 5381.951966 2616.263429 C 5446.270305 2642.909598 5508.750978 2672.312267 5569.8534 2704.930854 C 5630.955823 2737.54944 5690.679995 2773.383944 5748.107084 2811.974947 C 5805.993589 2850.106534 5861.583011 2891.454038 5914.87535 2935.558042 C 5968.627105 2979.662047 6020.081776 3026.063134 6068.779948 3075.220722 C 6117.937536 3123.918894 6164.338623 3175.373565 6208.442628 3229.12532 C 6252.546632 3282.417659 6293.894136 3338.007081 6332.025723 3395.893586 C 6370.616726 3453.320675 6406.45123 3513.044847 6439.069816 3574.14727 C 6471.688402 3635.249692 6501.091072 3697.730365 6527.737241 3762.048704 C 6554.38341 3825.907627 6577.813663 3891.1448 6598.027998 3957.300806 C 6617.782916 4023.916229 6634.781335 4090.991069 6648.104419 4158.984742 C 6661.886921 4226.978415 6671.994088 4295.431505 6678.885339 4364.344011 C 6685.776589 4433.715935 6688.992506 4502.628441 6688.992506 4572.000364 Z M 6688.992506 4572.000364 " stroke="#ffffff" stroke-width="176.38" stroke-opacity="1" stroke-miterlimit="4"/></g></svg>