<svg xmlns="http://www.w3.org/2000/svg" xmlns:xlink="http://www.w3.org/1999/xlink" width="40" zoomAndPan="magnify" viewBox="0 0 30 30.000001" height="40" preserveAspectRatio="xMidYMid meet" version="1.0"><defs><clipPath id="80ddf945f7"><path d="M 0.484375 0 L 29.515625 0 L 29.515625 29.03125 L 0.484375 29.03125 Z M 0.484375 0 " clip-rule="nonzero"/></clipPath></defs><g clip-path="url(#80ddf945f7)"><path fill="#fefbfb" d="M 15 0 C 19.105469 0.109375 22.523438 1.527344 25.253906 4.261719 C 27.988281 6.992188 29.410156 10.410156 29.515625 14.515625 C 29.410156 18.621094 27.988281 22.039062 25.253906 24.773438 C 22.523438 27.503906 19.105469 28.925781 15 29.03125 C 10.894531 28.925781 7.476562 27.503906 4.746094 24.773438 C 2.011719 22.039062 0.589844 18.621094 0.484375 14.515625 C 0.589844 10.410156 2.011719 6.992188 4.746094 4.261719 C 7.476562 1.527344 10.894531 0.109375 15 0 Z M 15 6.222656 C 14.4375 6.222656 13.972656 6.425781 13.605469 6.835938 C 13.238281 7.246094 13.078125 7.734375 13.121094 8.296875 L 13.867188 16.589844 C 13.910156 16.894531 14.035156 17.136719 14.238281 17.320312 C 14.441406 17.5 14.695312 17.59375 15 17.59375 C 15.300781 17.59375 15.554688 17.503906 15.761719 17.320312 C 15.964844 17.132812 16.089844 16.890625 16.132812 16.589844 L 16.878906 8.296875 C 16.921875 7.734375 16.757812 7.246094 16.390625 6.835938 C 16.023438 6.425781 15.558594 6.222656 14.996094 6.222656 Z M 15 22.8125 C 15.476562 22.789062 15.871094 22.628906 16.183594 22.324219 C 16.496094 22.023438 16.652344 21.632812 16.652344 21.160156 C 16.652344 20.683594 16.496094 20.289062 16.183594 19.976562 C 15.871094 19.660156 15.476562 19.503906 15 19.503906 C 14.523438 19.507812 14.128906 19.664062 13.816406 19.976562 C 13.503906 20.289062 13.347656 20.683594 13.347656 21.160156 C 13.347656 21.632812 13.503906 22.023438 13.816406 22.324219 C 14.128906 22.625 14.523438 22.789062 15 22.8125 Z M 15 22.8125 " fill-opacity="0.9608" fill-rule="nonzero"/></g></svg>