<svg xmlns="http://www.w3.org/2000/svg" xmlns:xlink="http://www.w3.org/1999/xlink" width="40" zoomAndPan="magnify" viewBox="0 0 30 30.000001" height="40" preserveAspectRatio="xMidYMid meet" version="1.0"><defs><clipPath id="9db1d840fe"><path d="M 0.484375 0 L 29.515625 0 L 29.515625 29.03125 L 0.484375 29.03125 Z M 0.484375 0 " clip-rule="nonzero"/></clipPath></defs><path fill="#4e9a51" d="M 23.238281 10.007812 L 13.664062 20.828125 C 13.421875 21.105469 13.074219 21.269531 12.703125 21.285156 C 12.683594 21.289062 12.664062 21.289062 12.644531 21.289062 C 12.296875 21.289062 11.957031 21.152344 11.703125 20.910156 L 6.839844 16.257812 C 6.296875 15.738281 6.277344 14.878906 6.796875 14.332031 C 7.316406 13.789062 8.179688 13.769531 8.722656 14.289062 L 12.5625 17.960938 L 21.199219 8.203125 C 21.699219 7.640625 22.558594 7.589844 23.121094 8.085938 C 23.683594 8.585938 23.738281 9.445312 23.238281 10.007812 " fill-opacity="1" fill-rule="nonzero"/><g clip-path="url(#9db1d840fe)"><path fill="#fefbfb" d="M 23.238281 10.007812 L 13.664062 20.828125 C 13.421875 21.105469 13.074219 21.269531 12.703125 21.285156 C 12.683594 21.289062 12.664062 21.289062 12.644531 21.289062 C 12.296875 21.289062 11.957031 21.152344 11.703125 20.910156 L 6.839844 16.257812 C 6.296875 15.738281 6.277344 14.878906 6.796875 14.332031 C 7.316406 13.789062 8.179688 13.769531 8.722656 14.289062 L 12.5625 17.960938 L 21.199219 8.203125 C 21.699219 7.640625 22.558594 7.589844 23.121094 8.085938 C 23.683594 8.585938 23.738281 9.445312 23.238281 10.007812 Z M 28.375 8.867188 C 27.644531 7.136719 26.597656 5.585938 25.265625 4.25 C 23.933594 2.917969 22.378906 1.871094 20.652344 1.140625 C 18.859375 0.382812 16.960938 0 15 0 C 13.039062 0 11.140625 0.382812 9.347656 1.140625 C 7.621094 1.871094 6.066406 2.917969 4.734375 4.25 C 3.402344 5.585938 2.355469 7.136719 1.625 8.867188 C 0.867188 10.65625 0.484375 12.558594 0.484375 14.515625 C 0.484375 16.476562 0.867188 18.375 1.625 20.167969 C 2.355469 21.894531 3.402344 23.449219 4.734375 24.78125 C 6.066406 26.113281 7.621094 27.160156 9.347656 27.890625 C 11.140625 28.648438 13.039062 29.03125 15 29.03125 C 16.960938 29.03125 18.859375 28.648438 20.652344 27.890625 C 22.378906 27.160156 23.933594 26.113281 25.265625 24.78125 C 26.597656 23.449219 27.644531 21.894531 28.375 20.167969 C 29.132812 18.375 29.515625 16.476562 29.515625 14.515625 C 29.515625 12.558594 29.132812 10.65625 28.375 8.867188 " fill-opacity="1" fill-rule="nonzero"/></g><path fill="#4e9a51" d="M 23.238281 10.007812 L 13.664062 20.828125 C 13.421875 21.105469 13.074219 21.269531 12.703125 21.285156 C 12.683594 21.289062 12.664062 21.289062 12.644531 21.289062 C 12.296875 21.289062 11.957031 21.152344 11.703125 20.910156 L 6.839844 16.257812 C 6.296875 15.738281 6.277344 14.878906 6.796875 14.332031 C 7.316406 13.789062 8.179688 13.769531 8.722656 14.289062 L 12.5625 17.960938 L 21.199219 8.203125 C 21.699219 7.640625 22.558594 7.589844 23.121094 8.085938 C 23.683594 8.585938 23.738281 9.445312 23.238281 10.007812 " fill-opacity="1" fill-rule="nonzero"/></svg>