<svg xmlns="http://www.w3.org/2000/svg" xmlns:xlink="http://www.w3.org/1999/xlink" width="50" zoomAndPan="magnify" viewBox="0 0 37.5 37.499999" height="50" preserveAspectRatio="xMidYMid meet" version="1.0"><defs><clipPath id="a859da4752"><path d="M 0 0 L 37.007812 0 L 37.007812 36.75 L 0 36.75 Z M 0 0 " clip-rule="nonzero"/></clipPath></defs><g clip-path="url(#a859da4752)"><path fill="#ffffff" d="M 2.289062 36.582031 C 0.332031 36.582031 -0.53125 35.148438 0.371094 33.398438 L 16.953125 1.210938 C 17.855469 -0.542969 19.332031 -0.542969 20.234375 1.210938 L 36.820312 33.398438 C 37.722656 35.148438 36.859375 36.582031 34.902344 36.582031 Z M 2.289062 36.582031 " fill-opacity="1" fill-rule="nonzero"/></g><path fill="#efb917" d="M 16.027344 30.105469 C 16.027344 28.675781 17.179688 27.515625 18.597656 27.515625 C 20.011719 27.515625 21.167969 28.675781 21.167969 30.105469 C 21.167969 31.535156 20.011719 32.695312 18.597656 32.695312 C 17.179688 32.695312 16.027344 31.535156 16.027344 30.105469 Z M 16.222656 10.515625 C 16.222656 9.121094 17.246094 8.257812 18.597656 8.257812 C 19.914062 8.257812 20.96875 9.152344 20.96875 10.515625 L 20.96875 23.300781 C 20.96875 24.660156 19.914062 25.558594 18.597656 25.558594 C 17.246094 25.558594 16.222656 24.691406 16.222656 23.300781 Z M 16.222656 10.515625 " fill-opacity="1" fill-rule="nonzero"/></svg>